<svg data-v-423bf9ae="" xmlns="http://www.w3.org/2000/svg" viewBox="0 0 389.14288259206995 166" class="iconAbove"><!----><!----><!----><g data-v-423bf9ae="" id="a3929493-05cc-4652-b99e-792de9e6da77" fill="white" transform="matrix(5.911330271427935,0,0,5.911330271427935,-2.246302525154931,83.72422631895584)"><path d="M5.33 4.83L5.33 13.64L3.62 13.64L3.62 4.83L0.38 4.83L0.60 3.63L8.67 3.63L8.45 4.83L5.33 4.83ZM15.38 8.11L15.38 8.11L15.38 8.11Q15.79 8.22 16.17 8.43L16.17 8.43L16.17 8.43Q16.54 8.63 16.83 8.93L16.83 8.93L16.83 8.93Q17.12 9.22 17.30 9.60L17.30 9.60L17.30 9.60Q17.47 9.98 17.47 10.45L17.47 10.45L17.47 10.45Q17.47 11.00 17.20 11.57L17.20 11.57L17.20 11.57Q16.93 12.13 16.41 12.60L16.41 12.60L16.41 12.60Q15.88 13.06 15.10 13.35L15.10 13.35L15.10 13.35Q14.32 13.64 13.30 13.64L13.30 13.64L10.46 13.64L10.46 3.63L13.58 3.63L13.58 3.63Q14.44 3.63 15.09 3.81L15.09 3.81L15.09 3.81Q15.73 4.00 16.16 4.30L16.16 4.30L16.16 4.30Q16.59 4.60 16.81 5.00L16.81 5.00L16.81 5.00Q17.02 5.39 17.02 5.81L17.02 5.81L17.02 5.81Q17.02 6.17 16.88 6.49L16.88 6.49L16.88 6.49Q16.75 6.82 16.52 7.11L16.52 7.11L16.52 7.11Q16.30 7.40 16.00 7.65L16.00 7.65L16.00 7.65Q15.70 7.90 15.38 8.11ZM12.15 9.02L12.15 12.44L13.47 12.44L13.47 12.44Q14.08 12.44 14.50 12.28L14.50 12.28L14.50 12.28Q14.93 12.12 15.20 11.86L15.20 11.86L15.20 11.86Q15.46 11.61 15.58 11.28L15.58 11.28L15.58 11.28Q15.70 10.96 15.70 10.62L15.70 10.62L15.70 10.62Q15.70 10.21 15.54 9.91L15.54 9.91L15.54 9.91Q15.37 9.60 15.07 9.41L15.07 9.41L15.07 9.41Q14.77 9.21 14.36 9.12L14.36 9.12L14.36 9.12Q13.94 9.02 13.43 9.02L13.43 9.02L12.15 9.02ZM12.15 7.85L14.38 7.85L14.38 7.85Q14.81 7.55 15.08 7.15L15.08 7.15L15.08 7.15Q15.34 6.75 15.34 6.25L15.34 6.25L15.34 6.25Q15.34 5.60 14.82 5.22L14.82 5.22L14.82 5.22Q14.31 4.83 13.36 4.83L13.36 4.83L12.15 4.83L12.15 7.85ZM20.49 13.78L20.49 13.78L20.49 13.78Q20.25 13.78 20.05 13.69L20.05 13.69L20.05 13.69Q19.84 13.60 19.68 13.44L19.68 13.44L19.68 13.44Q19.53 13.29 19.44 13.08L19.44 13.08L19.44 13.08Q19.35 12.87 19.35 12.64L19.35 12.64L19.35 12.64Q19.35 12.40 19.44 12.19L19.44 12.19L19.44 12.19Q19.54 11.97 19.69 11.81L19.69 11.81L19.69 11.81Q19.85 11.65 20.06 11.56L20.06 11.56L20.06 11.56Q20.27 11.46 20.51 11.46L20.51 11.46L20.51 11.46Q20.75 11.46 20.96 11.56L20.96 11.56L20.96 11.56Q21.16 11.65 21.32 11.81L21.32 11.81L21.32 11.81Q21.47 11.97 21.56 12.18L21.56 12.18L21.56 12.18Q21.65 12.39 21.65 12.63L21.65 12.63L21.65 12.63Q21.65 12.87 21.56 13.08L21.56 13.08L21.56 13.08Q21.46 13.29 21.31 13.44L21.31 13.44L21.31 13.44Q21.15 13.60 20.94 13.69L20.94 13.69L20.94 13.69Q20.73 13.78 20.49 13.78ZM28.83 13.64L27.13 13.64L27.13 3.63L28.83 3.63L28.83 7.83L33.80 7.83L33.80 3.63L35.50 3.63L35.50 13.64L33.80 13.64L33.80 9.04L28.83 9.04L28.83 13.64ZM41.96 12.58L41.96 12.58L41.96 12.58Q41.78 12.73 41.53 12.94L41.53 12.94L41.53 12.94Q41.28 13.15 40.98 13.33L40.98 13.33L40.98 13.33Q40.67 13.52 40.31 13.65L40.31 13.65L40.31 13.65Q39.96 13.78 39.56 13.78L39.56 13.78L39.56 13.78Q39.16 13.78 38.81 13.63L38.81 13.63L38.81 13.63Q38.47 13.49 38.21 13.22L38.21 13.22L38.21 13.22Q37.95 12.96 37.81 12.60L37.81 12.60L37.81 12.60Q37.66 12.23 37.66 11.79L37.66 11.79L37.66 11.79Q37.66 11.32 37.85 10.88L37.85 10.88L37.85 10.88Q38.04 10.43 38.48 10.08L38.48 10.08L38.48 10.08Q38.92 9.73 39.64 9.52L39.64 9.52L39.64 9.52Q40.37 9.30 41.43 9.30L41.43 9.30L41.93 9.30L41.93 8.74L41.93 8.74Q41.93 8.44 41.83 8.20L41.83 8.20L41.83 8.20Q41.73 7.96 41.54 7.79L41.54 7.79L41.54 7.79Q41.36 7.62 41.10 7.53L41.10 7.53L41.10 7.53Q40.84 7.44 40.53 7.44L40.53 7.44L40.53 7.44Q40.28 7.44 40.00 7.50L40.00 7.50L40.00 7.50Q39.72 7.56 39.45 7.66L39.45 7.66L39.45 7.66Q39.18 7.77 38.92 7.91L38.92 7.91L38.92 7.91Q38.66 8.05 38.45 8.21L38.45 8.21L38.33 8.14L38.01 6.99L38.01 6.99Q38.84 6.56 39.55 6.41L39.55 6.41L39.55 6.41Q40.26 6.26 40.89 6.26L40.89 6.26L40.89 6.26Q41.53 6.26 42.03 6.39L42.03 6.39L42.03 6.39Q42.53 6.52 42.88 6.79L42.88 6.79L42.88 6.79Q43.23 7.06 43.41 7.48L43.41 7.48L43.41 7.48Q43.59 7.89 43.59 8.46L43.59 8.46L43.59 11.81L43.59 11.81Q43.59 11.91 43.61 12.03L43.61 12.03L43.61 12.03Q43.63 12.15 43.68 12.26L43.68 12.26L43.68 12.26Q43.73 12.37 43.83 12.45L43.83 12.45L43.83 12.45Q43.93 12.52 44.09 12.52L44.09 12.52L44.09 12.52Q44.19 12.52 44.32 12.50L44.32 12.50L44.32 12.50Q44.46 12.47 44.60 12.41L44.60 12.41L44.60 13.23L44.60 13.23Q44.23 13.48 43.86 13.63L43.86 13.63L43.86 13.63Q43.50 13.78 43.15 13.78L43.15 13.78L43.15 13.78Q42.88 13.78 42.68 13.68L42.68 13.68L42.68 13.68Q42.48 13.58 42.34 13.41L42.34 13.41L42.34 13.41Q42.21 13.24 42.11 13.03L42.11 13.03L42.11 13.03Q42.02 12.81 41.96 12.58ZM41.93 11.70L41.93 10.11L41.50 10.11L41.50 10.11Q40.79 10.11 40.36 10.21L40.36 10.21L40.36 10.21Q39.92 10.31 39.68 10.48L39.68 10.48L39.68 10.48Q39.44 10.66 39.36 10.89L39.36 10.89L39.36 10.89Q39.29 11.12 39.29 11.38L39.29 11.38L39.29 11.38Q39.29 11.66 39.37 11.87L39.37 11.87L39.37 11.87Q39.45 12.09 39.59 12.23L39.59 12.23L39.59 12.23Q39.73 12.37 39.92 12.45L39.92 12.45L39.92 12.45Q40.11 12.52 40.33 12.52L40.33 12.52L40.33 12.52Q40.50 12.52 40.67 12.49L40.67 12.49L40.67 12.49Q40.85 12.45 41.05 12.35L41.05 12.35L41.05 12.35Q41.24 12.26 41.46 12.10L41.46 12.10L41.46 12.10Q41.68 11.94 41.93 11.70L41.93 11.70ZM46.07 13.64L46.07 6.40L47.41 6.40L47.65 8.56L47.65 8.56Q47.74 8.38 47.84 8.19L47.84 8.19L47.84 8.19Q47.95 8.00 48.05 7.83L48.05 7.83L48.05 7.83Q48.15 7.66 48.24 7.51L48.24 7.51L48.24 7.51Q48.33 7.37 48.39 7.27L48.39 7.27L48.39 7.27Q48.54 7.06 48.72 6.87L48.72 6.87L48.72 6.87Q48.90 6.69 49.11 6.55L49.11 6.55L49.11 6.55Q49.32 6.42 49.57 6.34L49.57 6.34L49.57 6.34Q49.81 6.26 50.10 6.26L50.10 6.26L50.10 6.26Q50.30 6.26 50.50 6.31L50.50 6.31L50.50 6.31Q50.70 6.36 50.83 6.46L50.83 6.46L50.65 7.98L50.65 7.98Q50.53 7.95 50.37 7.94L50.37 7.94L50.37 7.94Q50.20 7.93 50.07 7.93L50.07 7.93L50.07 7.93Q49.64 7.93 49.29 8.06L49.29 8.06L49.29 8.06Q48.95 8.18 48.68 8.40L48.68 8.40L48.68 8.40Q48.40 8.63 48.17 8.93L48.17 8.93L48.17 8.93Q47.94 9.23 47.73 9.58L47.73 9.58L47.73 13.64L46.07 13.64ZM57.34 12.15L57.34 12.98L57.34 12.98Q56.85 13.37 56.26 13.58L56.26 13.58L56.26 13.58Q55.67 13.78 54.98 13.78L54.98 13.78L54.98 13.78Q54.22 13.78 53.60 13.52L53.60 13.52L53.60 13.52Q52.99 13.27 52.55 12.81L52.55 12.81L52.55 12.81Q52.12 12.36 51.89 11.73L51.89 11.73L51.89 11.73Q51.66 11.09 51.66 10.34L51.66 10.34L51.66 10.34Q51.66 9.44 51.97 8.69L51.97 8.69L51.97 8.69Q52.29 7.94 52.83 7.40L52.83 7.40L52.83 7.40Q53.38 6.86 54.11 6.56L54.11 6.56L54.11 6.56Q54.85 6.26 55.70 6.26L55.70 6.26L55.70 6.26Q55.88 6.26 56.10 6.28L56.10 6.28L56.10 6.28Q56.31 6.30 56.53 6.33L56.53 6.33L56.53 6.33Q56.75 6.36 56.97 6.42L56.97 6.42L56.97 6.42Q57.18 6.48 57.37 6.56L57.37 6.56L57.07 7.83L56.93 7.90L56.93 7.90Q56.81 7.81 56.64 7.73L56.64 7.73L56.64 7.73Q56.47 7.64 56.28 7.58L56.28 7.58L56.28 7.58Q56.09 7.52 55.88 7.48L55.88 7.48L55.88 7.48Q55.68 7.44 55.48 7.44L55.48 7.44L55.48 7.44Q55.04 7.44 54.66 7.62L54.66 7.62L54.66 7.62Q54.28 7.79 54.00 8.11L54.00 8.11L54.00 8.11Q53.72 8.44 53.55 8.92L53.55 8.92L53.55 8.92Q53.39 9.39 53.39 9.99L53.39 9.99L53.39 9.99Q53.39 10.62 53.57 11.09L53.57 11.09L53.57 11.09Q53.74 11.57 54.06 11.88L54.06 11.88L54.06 11.88Q54.37 12.20 54.80 12.36L54.80 12.36L54.80 12.36Q55.23 12.52 55.74 12.52L55.74 12.52L55.74 12.52Q56.05 12.52 56.46 12.45L56.46 12.45L56.46 12.45Q56.86 12.37 57.34 12.15L57.34 12.15ZM62.21 13.78L62.21 13.78L62.21 13.78Q61.36 13.78 60.71 13.49L60.71 13.49L60.71 13.49Q60.05 13.21 59.61 12.72L59.61 12.72L59.61 12.72Q59.17 12.23 58.94 11.59L58.94 11.59L58.94 11.59Q58.71 10.94 58.71 10.23L58.71 10.23L58.71 10.23Q58.71 9.40 59.00 8.68L59.00 8.68L59.00 8.68Q59.29 7.96 59.82 7.42L59.82 7.42L59.82 7.42Q60.35 6.88 61.09 6.57L61.09 6.57L61.09 6.57Q61.82 6.26 62.69 6.26L62.69 6.26L62.69 6.26Q63.55 6.26 64.20 6.55L64.20 6.55L64.20 6.55Q64.86 6.84 65.30 7.33L65.30 7.33L65.30 7.33Q65.75 7.82 65.98 8.47L65.98 8.47L65.98 8.47Q66.21 9.11 66.21 9.83L66.21 9.83L66.21 9.83Q66.21 10.66 65.91 11.39L65.91 11.39L65.91 11.39Q65.61 12.11 65.08 12.64L65.08 12.64L65.08 12.64Q64.54 13.17 63.81 13.48L63.81 13.48L63.81 13.48Q63.08 13.78 62.21 13.78ZM62.50 12.60L62.50 12.60L62.50 12.60Q62.94 12.60 63.30 12.42L63.30 12.42L63.30 12.42Q63.66 12.24 63.92 11.91L63.92 11.91L63.92 11.91Q64.18 11.59 64.33 11.14L64.33 11.14L64.33 11.14Q64.47 10.68 64.47 10.14L64.47 10.14L64.47 10.14Q64.47 9.60 64.33 9.12L64.33 9.12L64.33 9.12Q64.19 8.63 63.92 8.26L63.92 8.26L63.92 8.26Q63.66 7.89 63.27 7.67L63.27 7.67L63.27 7.67Q62.89 7.44 62.41 7.44L62.41 7.44L62.41 7.44Q61.96 7.44 61.60 7.63L61.60 7.63L61.60 7.63Q61.24 7.81 60.98 8.14L60.98 8.14L60.98 8.14Q60.72 8.47 60.58 8.92L60.58 8.92L60.58 8.92Q60.44 9.38 60.44 9.92L60.44 9.92L60.44 9.92Q60.44 10.46 60.58 10.94L60.58 10.94L60.58 10.94Q60.72 11.43 60.98 11.80L60.98 11.80L60.98 11.80Q61.25 12.17 61.63 12.38L61.63 12.38L61.63 12.38Q62.02 12.60 62.50 12.60Z"></path></g><!----><g data-v-423bf9ae="" id="8f0e4c31-7a2f-440d-be70-62e7efa66efc" transform="matrix(1.0120515611436631,0,0,1.0120515611436631,144.39742194281683,0.9088314033807094)" stroke="none" fill="white"><path d="M55.149 89.184c0 1.041-.938 1.9-2.109 1.9H21.498c-1.172 0-2.123-.859-2.123-1.9V74.809c0-1.055.951-1.908 2.123-1.908H53.04c1.172 0 2.109.854 2.109 1.908v14.375zM100 74.809c0-1.055-.95-1.901-2.129-1.901H66.335c-1.179 0-2.129.847-2.129 1.901v14.375c0 1.048.95 1.9 2.129 1.9h31.536c1.179 0 2.129-.853 2.129-1.9V74.809zM77.578 47.568c0-1.055-.95-1.907-2.129-1.907H43.906c-1.159 0-2.123.853-2.123 1.907v14.375c0 1.042.964 1.908 2.123 1.908h31.543c1.179 0 2.129-.866 2.129-1.908V47.568zM44.961 31.345c1.035.726 2.461.472 3.203-.573l7.2-10.345a2.3 2.3 0 0 0-.56-3.2l-2.227-1.533-9.772 14.15 2.156 1.501zM0 52.65c1.387 2.952 4.492 4.964 7.552 5.309L26.66 30.703l-7.578-5.309L0 52.65zM40.67 25.833c.137.189.261.375.378.573.084.153.163.303.234.437.124.296.26.579.325.862 2.812-4.026 5.638-8.047 8.457-12.067 0 0-6.582.801-10.032-7.035-.71-.498-1.452-.999-2.162-1.504C27.948.159 18.534-1.257 10.331.976a54.83 54.83 0 0 0-2.155.69c-1.439.488-1.185 2.676.43 2.415.762-.133 1.536-.26 1.914-.28 1.562-.068 3.06-.176 4.622.114 6.654 1.276 11.882 7.337 7.52 13.564-1.178 1.664-3.528 4.945-3.502 4.984.013.026 9.916 6.872 9.87 6.943-.28.397.671-.885.983-1.283 1.465-1.719 4.557-4.658 8.366-3.89a3.413 3.413 0 0 1 1.504.742c.202.179.41.364.586.583.078.09.136.184.201.275z"></path></g><!----></svg>