<svg data-v-fde0c5aa="" xmlns="http://www.w3.org/2000/svg" viewBox="0 0 300 300" class="icon"><!----><defs data-v-fde0c5aa=""><!----></defs><rect data-v-fde0c5aa="" fill="#423833" x="0" y="0" width="300px" height="300px" class="logo-background-square"></rect><!----><defs data-v-fde0c5aa=""><!----></defs><g data-v-fde0c5aa="" id="ea3f36ac-af6c-49c6-ab1e-3cda58da030d" fill="#D1793F" stroke="none" transform="matrix(2.2,0,0,2.2,39.999999999999986,49.808303260803214)"><path d="M55.149 89.184c0 1.041-.938 1.9-2.109 1.9H21.498c-1.172 0-2.123-.859-2.123-1.9V74.809c0-1.055.951-1.908 2.123-1.908H53.04c1.172 0 2.109.854 2.109 1.908v14.375zM100 74.809c0-1.055-.95-1.901-2.129-1.901H66.335c-1.179 0-2.129.847-2.129 1.901v14.375c0 1.048.95 1.9 2.129 1.9h31.536c1.179 0 2.129-.853 2.129-1.9V74.809zM77.578 47.568c0-1.055-.95-1.907-2.129-1.907H43.906c-1.159 0-2.123.853-2.123 1.907v14.375c0 1.042.964 1.908 2.123 1.908h31.543c1.179 0 2.129-.866 2.129-1.908V47.568zM44.961 31.345c1.035.726 2.461.472 3.203-.573l7.2-10.345a2.3 2.3 0 0 0-.56-3.2l-2.227-1.533-9.772 14.15 2.156 1.501zM0 52.65c1.387 2.952 4.492 4.964 7.552 5.309L26.66 30.703l-7.578-5.309L0 52.65zM40.67 25.833c.137.189.261.375.378.573.084.153.163.303.234.437.124.296.26.579.325.862 2.812-4.026 5.638-8.047 8.457-12.067 0 0-6.582.801-10.032-7.035-.71-.498-1.452-.999-2.162-1.504C27.948.159 18.534-1.257 10.331.976a54.83 54.83 0 0 0-2.155.69c-1.439.488-1.185 2.676.43 2.415.762-.133 1.536-.26 1.914-.28 1.562-.068 3.06-.176 4.622.114 6.654 1.276 11.882 7.337 7.52 13.564-1.178 1.664-3.528 4.945-3.502 4.984.013.026 9.916 6.872 9.87 6.943-.28.397.671-.885.983-1.283 1.465-1.719 4.557-4.658 8.366-3.89a3.413 3.413 0 0 1 1.504.742c.202.179.41.364.586.583.078.09.136.184.201.275z"></path></g><!----></svg>